<svg data-v-0dd9719b="" version="1.0" xmlns="http://www.w3.org/2000/svg" xmlns:xlink="http://www.w3.org/1999/xlink" width="100%" height="100%" viewBox="0 0 109.19999999999999 109.19999999999999" preserveAspectRatio="xMidYMid meet" color-interpolation-filters="sRGB" style="margin: auto;"> <rect data-v-0dd9719b="" x="0" y="0" width="100%" height="100%" fill="#fff" fill-opacity="0" class="background"></rect> <!----> <g data-v-0dd9719b="" fill="#333333" class="icon-text-wrapper icon-svg-group iconsvg" transform="translate(15.599999999999994, 15.599999999999994)"><g fill="#f18700" class="iconsvg-imagesvg icon_container"><rect fill="#333333" fill-opacity="0" stroke-width="2" x="0" y="0" width="78" height="78" class="image-rect"></rect> <svg viewBox="0 0 60 60" x="0" y="0" width="78" height="78" class="image-svg-svg bn" style="overflow: visible;"><g hollow-target="iconBnFill" mask="url(#6a4ea2f9-d1a0-4c9c-a5dd-0245e34957fc)"><g><svg viewBox="0 0 100 100" xmlns="http://www.w3.org/2000/svg" style="overflow: visible;" width="60" height="60" x="0" y="0" filtersec="colorsb8806864401" filter="url(#_Io5eG2xiFR0WdlK_1MZr)"><g transform="scale(1, 1) skewX(0)"><rect x="277" y="3121" width="100" height="100" rx="10" transform="translate(-277 -3121)" fill-rule="evenodd"></rect></g><defs><filter id="_Io5eG2xiFR0WdlK_1MZr"><feColorMatrix type="matrix" values="0 0 0 0 0.94140625  0 0 0 0 0.52734375  0 0 0 0 0  0 0 0 1 0"></feColorMatrix></filter></defs></svg></g> <g><svg xmlns="http://www.w3.org/2000/svg" viewBox="0 0 340.3999938964844 264.6700134277344" width="39.6" height="39.6" x="10.2" y="10.2" class="image-svg-icon"><defs><clipPath id="aa12d1a56-b4a7-412f-992f-571eb6828cf6"><path fill="none" clip-rule="evenodd" d="M170.2 0l85.1 132.31 85.1 132.32H198.24l46.43-72.19L170.2 76.65 49.3 264.63H0l85.1-132.32L170.2 0z"></path></clipPath></defs><g><g><g clip-path="url(#aa12d1a56-b4a7-412f-992f-571eb6828cf6)"><path fill="#ed6a00" d="M0 0h.66v264.63H0z"></path><path fill="#ed6a00" d="M0 0h1.99v264.63H0z"></path><path fill="#ed6a00" d="M1.33 0h1.99v264.63H1.33z"></path><path fill="#ed6c00" d="M2.66 0h1.99v264.63H2.66z"></path><path fill="#ed6c00" d="M3.99 0h1.99v264.63H3.99z"></path><path fill="#ed6c00" d="M5.32 0h1.99v264.63H5.32z"></path><path fill="#ed6c00" d="M6.65 0h1.99v264.63H6.65z"></path><path fill="#ed6f00" d="M7.98 0h1.99v264.63H7.98z"></path><path fill="#ed6f00" d="M9.31 0h1.99v264.63H9.31z"></path><path fill="#ed6f00" d="M10.64 0h1.99v264.63h-1.99z"></path><path fill="#ed6f00" d="M11.97 0h1.99v264.63h-1.99z"></path><path fill="#ed6f00" d="M13.3 0h1.99v264.63H13.3z"></path><path fill="#ed6f00" d="M14.63 0h1.99v264.63h-1.99z"></path><path fill="#ed7100" d="M15.96 0h1.99v264.63h-1.99z"></path><path fill="#ed7100" d="M17.29 0h1.99v264.63h-1.99z"></path><path fill="#ed7100" d="M18.62 0h1.99v264.63h-1.99z"></path><path fill="#ed7100" d="M19.95 0h1.99v264.63h-1.99z"></path><path fill="#ee7300" d="M21.27 0h1.99v264.63h-1.99z"></path><path fill="#ee7300" d="M22.6 0h1.99v264.63H22.6z"></path><path fill="#ee7300" d="M23.93 0h1.99v264.63h-1.99z"></path><path fill="#ee7300" d="M25.26 0h1.99v264.63h-1.99z"></path><path fill="#ee7300" d="M26.59 0h1.99v264.63h-1.99z"></path><path fill="#ee7300" d="M27.92 0h1.99v264.63h-1.99z"></path><path fill="#ee7500" d="M29.25 0h1.99v264.63h-1.99z"></path><path fill="#ee7500" d="M30.58 0h1.99v264.63h-1.99z"></path><path fill="#ee7500" d="M31.91 0h1.99v264.63h-1.99z"></path><path fill="#ee7500" d="M33.24 0h1.99v264.63h-1.99z"></path><path fill="#ee7800" d="M34.57 0h1.99v264.63h-1.99z"></path><path fill="#ee7800" d="M35.9 0h1.99v264.63H35.9z"></path><path fill="#ee7800" d="M37.23 0h1.99v264.63h-1.99z"></path><path fill="#ee7800" d="M38.56 0h1.99v264.63h-1.99z"></path><path fill="#ee7800" d="M39.89 0h1.99v264.63h-1.99z"></path><path fill="#ee7800" d="M41.22 0h1.99v264.63h-1.99z"></path><path fill="#ef7a00" d="M42.55 0h1.99v264.63h-1.99z"></path><path fill="#ef7a00" d="M43.88 0h1.99v264.63h-1.99z"></path><path fill="#ef7a00" d="M45.21 0h1.99v264.63h-1.99z"></path><path fill="#ef7a00" d="M46.54 0h1.99v264.63h-1.99z"></path><path fill="#ef7a00" d="M47.87 0h1.99v264.63h-1.99z"></path><path fill="#ef7a00" d="M49.2 0h1.99v264.63H49.2z"></path><path fill="#ef7c00" d="M50.53 0h1.99v264.63h-1.99z"></path><path fill="#ef7c00" d="M51.86 0h1.99v264.63h-1.99z"></path><path fill="#ef7c00" d="M53.19 0h1.99v264.63h-1.99z"></path><path fill="#ef7c00" d="M54.52 0h1.99v264.63h-1.99z"></path><path fill="#ef7e00" d="M55.85 0h1.99v264.63h-1.99z"></path><path fill="#ef7e00" d="M57.18 0h1.99v264.63h-1.99z"></path><path fill="#ef7e00" d="M58.51 0h1.99v264.63h-1.99z"></path><path fill="#ef7e00" d="M59.84 0h1.99v264.63h-1.99z"></path><path fill="#ef7e00" d="M61.17 0h1.99v264.63h-1.99z"></path><path fill="#ef7e00" d="M62.5 0h1.99v264.63H62.5z"></path><path fill="#f08000" d="M63.82 0h1.99v264.63h-1.99z"></path><path fill="#f08000" d="M65.15 0h1.99v264.63h-1.99z"></path><path fill="#f08000" d="M66.48 0h1.99v264.63h-1.99z"></path><path fill="#f08300" d="M67.81 0h1.99v264.63h-1.99z"></path><path fill="#f08300" d="M69.14 0h1.99v264.63h-1.99z"></path><path fill="#f08300" d="M70.47 0h1.99v264.63h-1.99z"></path><path fill="#f08300" d="M71.8 0h1.99v264.63H71.8z"></path><path fill="#f08300" d="M73.13 0h1.99v264.63h-1.99z"></path><path fill="#f08300" d="M74.46 0h1.99v264.63h-1.99z"></path><path fill="#f08500" d="M75.79 0h1.99v264.63h-1.99z"></path><path fill="#f08500" d="M77.12 0h1.99v264.63h-1.99z"></path><path fill="#f08500" d="M78.45 0h1.99v264.63h-1.99z"></path><path fill="#f08500" d="M79.78 0h1.99v264.63h-1.99z"></path><path fill="#f18700" d="M81.11 0h1.99v264.63h-1.99z"></path><path fill="#f18700" d="M82.44 0h1.99v264.63h-1.99z"></path><path fill="#f18700" d="M83.77 0h1.99v264.63h-1.99z"></path><path fill="#f18700" d="M85.1 0h1.99v264.63H85.1z"></path><path fill="#f18700" d="M86.43 0h1.99v264.63h-1.99z"></path><path fill="#f18700" d="M87.76 0h1.99v264.63h-1.99z"></path><path fill="#f18900" d="M89.09 0h1.99v264.63h-1.99z"></path><path fill="#f18900" d="M90.42 0h1.99v264.63h-1.99z"></path><path fill="#f18900" d="M91.75 0h1.99v264.63h-1.99z"></path><path fill="#f18900" d="M93.08 0h1.99v264.63h-1.99z"></path><path fill="#f18b00" d="M94.41 0h1.99v264.63h-1.99z"></path><path fill="#f18b00" d="M95.74 0h1.99v264.63h-1.99z"></path><path fill="#f18b00" d="M97.07 0h1.99v264.63h-1.99z"></path><path fill="#f18b00" d="M98.4 0h1.99v264.63H98.4z"></path><path fill="#f18b00" d="M99.73 0h1.99v264.63h-1.99z"></path><path fill="#f18b00" d="M101.06 0h1.99v264.63h-1.99z"></path><path fill="#f18d00" d="M102.39 0h1.99v264.63h-1.99z"></path><path fill="#f18d00" d="M103.72 0h1.99v264.63h-1.99z"></path><path fill="#f18d00" d="M105.05 0h1.99v264.63h-1.99z"></path><path fill="#f18d00" d="M106.37 0h1.99v264.63h-1.99z"></path><path fill="#f18d00" d="M107.7 0h1.99v264.63h-1.99z"></path><path fill="#f18d00" d="M109.03 0h1.99v264.63h-1.99z"></path><path fill="#f28f00" d="M110.36 0h1.99v264.63h-1.99z"></path><path fill="#f28f00" d="M111.69 0h1.99v264.63h-1.99z"></path><path fill="#f28f00" d="M113.02 0h1.99v264.63h-1.99z"></path><path fill="#f28f00" d="M114.35 0h1.99v264.63h-1.99z"></path><path fill="#f29100" d="M115.68 0h1.99v264.63h-1.99z"></path><path fill="#f29100" d="M117.01 0H119v264.63h-1.99z"></path><path fill="#f29100" d="M118.34 0h1.99v264.63h-1.99z"></path><path fill="#f29100" d="M119.67 0h1.99v264.63h-1.99z"></path><path fill="#f29100" d="M121 0h1.99v264.63H121z"></path><path fill="#f29100" d="M122.33 0h1.99v264.63h-1.99z"></path><path fill="#f29300" d="M123.66 0h1.99v264.63h-1.99z"></path><path fill="#f29300" d="M124.99 0h1.99v264.63h-1.99z"></path><path fill="#f29300" d="M126.32 0h1.99v264.63h-1.99z"></path><path fill="#f29300" d="M127.65 0h1.99v264.63h-1.99z"></path><path fill="#f39500" d="M128.98 0h1.99v264.63h-1.99z"></path><path fill="#f39500" d="M130.31 0h1.99v264.63h-1.99z"></path><path fill="#f39500" d="M131.64 0h1.99v264.63h-1.99z"></path><path fill="#f39500" d="M132.97 0h1.99v264.63h-1.99z"></path><path fill="#f39500" d="M134.3 0h1.99v264.63h-1.99z"></path><path fill="#f39800" d="M135.63 0h1.99v264.63h-1.99z"></path><path fill="#f39800" d="M136.96 0h1.99v264.63h-1.99z"></path><path fill="#f39800" d="M138.29 0h1.99v264.63h-1.99z"></path><path fill="#f39800" d="M139.62 0h1.99v264.63h-1.99z"></path><path fill="#f39a00" d="M140.95 0h1.99v264.63h-1.99z"></path><path fill="#f39a00" d="M142.28 0h1.99v264.63h-1.99z"></path><path fill="#f39a00" d="M143.61 0h1.99v264.63h-1.99z"></path><path fill="#f39a00" d="M144.94 0h1.99v264.63h-1.99z"></path><path fill="#f39a00" d="M146.27 0h1.99v264.63h-1.99z"></path><path fill="#f39a00" d="M147.6 0h1.99v264.63h-1.99z"></path><path fill="#f49c00" d="M148.92 0h1.99v264.63h-1.99z"></path><path fill="#f49c00" d="M150.25 0h1.99v264.63h-1.99z"></path><path fill="#f49c00" d="M151.58 0h1.99v264.63h-1.99z"></path><path fill="#f49c00" d="M152.91 0h1.99v264.63h-1.99z"></path><path fill="#f49e00" d="M154.24 0h1.99v264.63h-1.99z"></path><path fill="#f49e00" d="M155.57 0h1.99v264.63h-1.99z"></path><path fill="#f49e00" d="M156.9 0h1.99v264.63h-1.99z"></path><path fill="#f49e00" d="M158.23 0h1.99v264.63h-1.99z"></path><path fill="#f49e00" d="M159.56 0h1.99v264.63h-1.99z"></path><path fill="#f49e00" d="M160.89 0h1.99v264.63h-1.99z"></path><path fill="#f5a000" d="M162.22 0h1.99v264.63h-1.99z"></path><path fill="#f5a000" d="M163.55 0h1.99v264.63h-1.99z"></path><path fill="#f5a000" d="M164.88 0h1.99v264.63h-1.99z"></path><path fill="#f5a000" d="M166.21 0h1.99v264.63h-1.99z"></path><path fill="#f5a200" d="M167.54 0h1.99v264.63h-1.99z"></path><path fill="#f5a200" d="M168.87 0h1.99v264.63h-1.99z"></path><path fill="#f5a200" d="M170.2 0h1.99v264.63h-1.99z"></path><path fill="#f5a200" d="M171.53 0h1.99v264.63h-1.99z"></path><path fill="#f5a200" d="M172.86 0h1.99v264.63h-1.99z"></path><path fill="#f5a200" d="M174.19 0h1.99v264.63h-1.99z"></path><path fill="#f5a400" d="M175.52 0h1.99v264.63h-1.99z"></path><path fill="#f5a400" d="M176.85 0h1.99v264.63h-1.99z"></path><path fill="#f5a400" d="M178.18 0h1.99v264.63h-1.99z"></path><path fill="#f5a400" d="M179.51 0h1.99v264.63h-1.99z"></path><path fill="#f5a400" d="M180.84 0h1.99v264.63h-1.99z"></path><path fill="#f5a400" d="M182.17 0h1.99v264.63h-1.99z"></path><path fill="#f5a500" d="M183.5 0h1.99v264.63h-1.99z"></path><path fill="#f5a500" d="M184.83 0h1.99v264.63h-1.99z"></path><path fill="#f5a500" d="M186.16 0h1.99v264.63h-1.99z"></path><path fill="#f5a500" d="M187.49 0h1.99v264.63h-1.99z"></path><path fill="#f6a700" d="M188.82 0h1.99v264.63h-1.99z"></path><path fill="#f6a700" d="M190.15 0h1.99v264.63h-1.99z"></path><path fill="#f6a700" d="M191.47 0h1.99v264.63h-1.99z"></path><path fill="#f6a700" d="M192.8 0h1.99v264.63h-1.99z"></path><path fill="#f6a700" d="M194.13 0h1.99v264.63h-1.99z"></path><path fill="#f6a700" d="M195.46 0h1.99v264.63h-1.99z"></path><path fill="#f6a900" d="M196.79 0h1.99v264.63h-1.99z"></path><path fill="#f6a900" d="M198.12 0h1.99v264.63h-1.99z"></path><path fill="#f6a900" d="M199.45 0h1.99v264.63h-1.99z"></path><path fill="#f6a900" d="M200.78 0h1.99v264.63h-1.99z"></path><path fill="#f6ab00" d="M202.11 0h1.99v264.63h-1.99z"></path><path fill="#f6ab00" d="M203.44 0h1.99v264.63h-1.99z"></path><path fill="#f6ab00" d="M204.77 0h1.99v264.63h-1.99z"></path><path fill="#f6ab00" d="M206.1 0h1.99v264.63h-1.99z"></path><path fill="#f6ab00" d="M207.43 0h1.99v264.63h-1.99z"></path><path fill="#f7ad00" d="M208.76 0h1.99v264.63h-1.99z"></path><path fill="#f7ad00" d="M210.09 0h1.99v264.63h-1.99z"></path><path fill="#f7ad00" d="M211.42 0h1.99v264.63h-1.99z"></path><path fill="#f7ad00" d="M212.75 0h1.99v264.63h-1.99z"></path><path fill="#f7af00" d="M214.08 0h1.99v264.63h-1.99z"></path><path fill="#f7af00" d="M215.41 0h1.99v264.63h-1.99z"></path><path fill="#f7af00" d="M216.74 0h1.99v264.63h-1.99z"></path><path fill="#f7af00" d="M218.07 0h1.99v264.63h-1.99z"></path><path fill="#f7af00" d="M219.4 0h1.99v264.63h-1.99z"></path><path fill="#f7af00" d="M220.73 0h1.99v264.63h-1.99z"></path><path fill="#f8b100" d="M222.06 0h1.99v264.63h-1.99z"></path><path fill="#f8b100" d="M223.39 0h1.99v264.63h-1.99z"></path><path fill="#f8b100" d="M224.72 0h1.99v264.63h-1.99z"></path><path fill="#f8b100" d="M226.05 0h1.99v264.63h-1.99z"></path><path fill="#f8b300" d="M227.38 0h1.99v264.63h-1.99z"></path><path fill="#f8b300" d="M228.71 0h1.99v264.63h-1.99z"></path><path fill="#f8b300" d="M230.04 0h1.99v264.63h-1.99z"></path><path fill="#f8b300" d="M231.37 0h1.99v264.63h-1.99z"></path><path fill="#f8b300" d="M232.69 0h1.99v264.63h-1.99z"></path><path fill="#f8b300" d="M234.02 0h1.99v264.63h-1.99z"></path><path fill="#f8b500" d="M235.35 0h1.99v264.63h-1.99z"></path><path fill="#f8b500" d="M236.68 0h1.99v264.63h-1.99z"></path><path fill="#f8b500" d="M238.01 0H240v264.63h-1.99z"></path><path fill="#f8b500" d="M239.34 0h1.99v264.63h-1.99z"></path><path fill="#f8b500" d="M240.67 0h1.99v264.63h-1.99z"></path><path fill="#f8b500" d="M242 0h1.99v264.63H242z"></path><path fill="#f9b700" d="M243.33 0h1.99v264.63h-1.99z"></path><path fill="#f9b700" d="M244.66 0h1.99v264.63h-1.99z"></path><path fill="#f9b700" d="M245.99 0h1.99v264.63h-1.99z"></path><path fill="#f9b700" d="M247.32 0h1.99v264.63h-1.99z"></path><path fill="#f9b900" d="M248.65 0h1.99v264.63h-1.99z"></path><path fill="#f9b900" d="M249.98 0h1.99v264.63h-1.99z"></path><path fill="#f9b900" d="M251.31 0h1.99v264.63h-1.99z"></path><path fill="#f9b900" d="M252.64 0h1.99v264.63h-1.99z"></path><path fill="#f9b900" d="M253.97 0h1.99v264.63h-1.99z"></path><path fill="#f9b900" d="M255.3 0h1.99v264.63h-1.99z"></path><path fill="#f9bb00" d="M256.63 0h1.99v264.63h-1.99z"></path><path fill="#f9bb00" d="M257.96 0h1.99v264.63h-1.99z"></path><path fill="#f9bb00" d="M259.29 0h1.99v264.63h-1.99z"></path><path fill="#f9bb00" d="M260.62 0h1.99v264.63h-1.99z"></path><path fill="#fabd00" d="M261.95 0h1.99v264.63h-1.99z"></path><path fill="#fabd00" d="M263.28 0h1.99v264.63h-1.99z"></path><path fill="#fabd00" d="M264.61 0h1.99v264.63h-1.99z"></path><path fill="#fabd00" d="M265.94 0h1.99v264.63h-1.99z"></path><path fill="#fabd00" d="M267.27 0h1.99v264.63h-1.99z"></path><path fill="#fabd00" d="M268.6 0h1.99v264.63h-1.99z"></path><path fill="#fabe00" d="M269.93 0h1.99v264.63h-1.99z"></path><path fill="#fabe00" d="M271.26 0h1.99v264.63h-1.99z"></path><path fill="#fabe00" d="M272.59 0h1.99v264.63h-1.99z"></path><path fill="#fac000" d="M273.92 0h1.99v264.63h-1.99z"></path><path fill="#fac000" d="M275.24 0h1.99v264.63h-1.99z"></path><path fill="#fac000" d="M276.57 0h1.99v264.63h-1.99z"></path><path fill="#fac000" d="M277.9 0h1.99v264.63h-1.99z"></path><path fill="#fac000" d="M279.23 0h1.99v264.63h-1.99z"></path><path fill="#fac000" d="M280.56 0h1.99v264.63h-1.99z"></path><path fill="#fbc200" d="M281.89 0h1.99v264.63h-1.99z"></path><path fill="#fbc200" d="M283.22 0h1.99v264.63h-1.99z"></path><path fill="#fbc200" d="M284.55 0h1.99v264.63h-1.99z"></path><path fill="#fbc200" d="M285.88 0h1.99v264.63h-1.99z"></path><path fill="#fbc400" d="M287.21 0h1.99v264.63h-1.99z"></path><path fill="#fbc400" d="M288.54 0h1.99v264.63h-1.99z"></path><path fill="#fbc400" d="M289.87 0h1.99v264.63h-1.99z"></path><path fill="#fbc400" d="M291.2 0h1.99v264.63h-1.99z"></path><path fill="#fbc400" d="M292.53 0h1.99v264.63h-1.99z"></path><path fill="#fbc400" d="M293.86 0h1.99v264.63h-1.99z"></path><path fill="#fbc600" d="M295.19 0h1.99v264.63h-1.99z"></path><path fill="#fbc600" d="M296.52 0h1.99v264.63h-1.99z"></path><path fill="#fbc600" d="M297.85 0h1.99v264.63h-1.99z"></path><path fill="#fbc600" d="M299.18 0h1.99v264.63h-1.99z"></path><path fill="#fcc800" d="M300.51 0h1.99v264.63h-1.99z"></path><path fill="#fcc800" d="M301.84 0h1.99v264.63h-1.99z"></path><path fill="#fcc800" d="M303.17 0h1.99v264.63h-1.99z"></path><path fill="#fcc800" d="M304.5 0h1.99v264.63h-1.99z"></path><path fill="#fcc800" d="M305.83 0h1.99v264.63h-1.99z"></path><path fill="#fcc800" d="M307.16 0h1.99v264.63h-1.99z"></path><path fill="#fcc900" d="M308.49 0h1.99v264.63h-1.99z"></path><path fill="#fcc900" d="M309.82 0h1.99v264.63h-1.99z"></path><path fill="#fcc900" d="M311.15 0h1.99v264.63h-1.99z"></path><path fill="#fcc900" d="M312.48 0h1.99v264.63h-1.99z"></path><path fill="#fcc900" d="M313.81 0h1.99v264.63h-1.99z"></path><path fill="#fcc900" d="M315.14 0h1.99v264.63h-1.99z"></path><path fill="#fccb00" d="M316.47 0h1.99v264.63h-1.99z"></path><path fill="#fccb00" d="M317.79 0h1.99v264.63h-1.99z"></path><path fill="#fccb00" d="M319.12 0h1.99v264.63h-1.99z"></path><path fill="#fccb00" d="M320.45 0h1.99v264.63h-1.99z"></path><path fill="#fdcd00" d="M321.78 0h1.99v264.63h-1.99z"></path><path fill="#fdcd00" d="M323.11 0h1.99v264.63h-1.99z"></path><path fill="#fdcd00" d="M324.44 0h1.99v264.63h-1.99z"></path><path fill="#fdcd00" d="M325.77 0h1.99v264.63h-1.99z"></path><path fill="#fdcd00" d="M327.1 0h1.99v264.63h-1.99z"></path><path fill="#fdcd00" d="M328.43 0h1.99v264.63h-1.99z"></path><path fill="#fdcf00" d="M329.76 0h1.99v264.63h-1.99z"></path><path fill="#fdcf00" d="M331.09 0h1.99v264.63h-1.99z"></path><path fill="#fdcf00" d="M332.42 0h1.99v264.63h-1.99z"></path><path fill="#fdcf00" d="M333.75 0h1.99v264.63h-1.99z"></path><path fill="#fdd000" d="M335.08 0h1.99v264.63h-1.99z"></path><path fill="#fdd000" d="M336.41 0h1.99v264.63h-1.99z"></path><path fill="#fdd000" d="M337.74 0h2.66v264.63h-2.66z"></path></g><path d="M180.23 264.63h-47.36l17.8-27.63L203 155.62l23.68 36.82L198 237l-17.8 27.67zm-64.66 0l17.8-27.63 61-94.79-24.17-37.57L85.1 237l-17.8 27.63z" fill="#641d87" fill-rule="evenodd"></path></g></g></svg></g></g><mask id="6a4ea2f9-d1a0-4c9c-a5dd-0245e34957fc"><g fill="white"><svg viewBox="0 0 100 100" xmlns="http://www.w3.org/2000/svg" style="overflow: visible;" width="60" height="60" x="0" y="0" filtersec="colorsb8806864401"><g transform="scale(1, 1) skewX(0)"><rect x="277" y="3121" width="100" height="100" rx="10" transform="translate(-277 -3121)" fill-rule="evenodd"></rect></g><defs></defs></svg></g> <g fill="black"><svg xmlns="http://www.w3.org/2000/svg" viewBox="0 0 340.3999938964844 264.6700134277344" width="39.6" height="39.6" x="10.2" y="10.2" class="image-svg-icon"><defs><clipPath id="aa12d1a56-b4a7-412f-992f-571eb6828cf6"><path fill="none" clip-rule="evenodd" d="M170.2 0l85.1 132.31 85.1 132.32H198.24l46.43-72.19L170.2 76.65 49.3 264.63H0l85.1-132.32L170.2 0z"></path></clipPath></defs><g><g><g clip-path="url(#aa12d1a56-b4a7-412f-992f-571eb6828cf6)"><path d="M0 0h.66v264.63H0z"></path><path d="M0 0h1.99v264.63H0z"></path><path d="M1.33 0h1.99v264.63H1.33z"></path><path d="M2.66 0h1.99v264.63H2.66z"></path><path d="M3.99 0h1.99v264.63H3.99z"></path><path d="M5.32 0h1.99v264.63H5.32z"></path><path d="M6.65 0h1.99v264.63H6.65z"></path><path d="M7.98 0h1.99v264.63H7.98z"></path><path d="M9.31 0h1.99v264.63H9.31z"></path><path d="M10.64 0h1.99v264.63h-1.99z"></path><path d="M11.97 0h1.99v264.63h-1.99z"></path><path d="M13.3 0h1.99v264.63H13.3z"></path><path d="M14.63 0h1.99v264.63h-1.99z"></path><path d="M15.96 0h1.99v264.63h-1.99z"></path><path d="M17.29 0h1.99v264.63h-1.99z"></path><path d="M18.62 0h1.99v264.63h-1.99z"></path><path d="M19.95 0h1.99v264.63h-1.99z"></path><path d="M21.27 0h1.99v264.63h-1.99z"></path><path d="M22.6 0h1.99v264.63H22.6z"></path><path d="M23.93 0h1.99v264.63h-1.99z"></path><path d="M25.26 0h1.99v264.63h-1.99z"></path><path d="M26.59 0h1.99v264.63h-1.99z"></path><path d="M27.92 0h1.99v264.63h-1.99z"></path><path d="M29.25 0h1.99v264.63h-1.99z"></path><path d="M30.58 0h1.99v264.63h-1.99z"></path><path d="M31.91 0h1.99v264.63h-1.99z"></path><path d="M33.24 0h1.99v264.63h-1.99z"></path><path d="M34.57 0h1.99v264.63h-1.99z"></path><path d="M35.9 0h1.99v264.63H35.9z"></path><path d="M37.23 0h1.99v264.63h-1.99z"></path><path d="M38.56 0h1.99v264.63h-1.99z"></path><path d="M39.89 0h1.99v264.63h-1.99z"></path><path d="M41.22 0h1.99v264.63h-1.99z"></path><path d="M42.55 0h1.99v264.63h-1.99z"></path><path d="M43.88 0h1.99v264.63h-1.99z"></path><path d="M45.21 0h1.99v264.63h-1.99z"></path><path d="M46.54 0h1.99v264.63h-1.99z"></path><path d="M47.87 0h1.99v264.63h-1.99z"></path><path d="M49.2 0h1.99v264.63H49.2z"></path><path d="M50.53 0h1.99v264.63h-1.99z"></path><path d="M51.86 0h1.99v264.63h-1.99z"></path><path d="M53.19 0h1.99v264.63h-1.99z"></path><path d="M54.52 0h1.99v264.63h-1.99z"></path><path d="M55.85 0h1.99v264.63h-1.99z"></path><path d="M57.18 0h1.99v264.63h-1.99z"></path><path d="M58.51 0h1.99v264.63h-1.99z"></path><path d="M59.84 0h1.99v264.63h-1.99z"></path><path d="M61.17 0h1.99v264.63h-1.99z"></path><path d="M62.5 0h1.99v264.63H62.5z"></path><path d="M63.82 0h1.99v264.63h-1.99z"></path><path d="M65.15 0h1.99v264.63h-1.99z"></path><path d="M66.48 0h1.99v264.63h-1.99z"></path><path d="M67.81 0h1.99v264.63h-1.99z"></path><path d="M69.14 0h1.99v264.63h-1.99z"></path><path d="M70.47 0h1.99v264.63h-1.99z"></path><path d="M71.8 0h1.99v264.63H71.8z"></path><path d="M73.13 0h1.99v264.63h-1.99z"></path><path d="M74.46 0h1.99v264.63h-1.99z"></path><path d="M75.79 0h1.99v264.63h-1.99z"></path><path d="M77.12 0h1.99v264.63h-1.99z"></path><path d="M78.45 0h1.99v264.63h-1.99z"></path><path d="M79.78 0h1.99v264.63h-1.99z"></path><path d="M81.11 0h1.99v264.63h-1.99z"></path><path d="M82.44 0h1.99v264.63h-1.99z"></path><path d="M83.77 0h1.99v264.63h-1.99z"></path><path d="M85.1 0h1.99v264.63H85.1z"></path><path d="M86.43 0h1.99v264.63h-1.99z"></path><path d="M87.76 0h1.99v264.63h-1.99z"></path><path d="M89.09 0h1.99v264.63h-1.99z"></path><path d="M90.42 0h1.99v264.63h-1.99z"></path><path d="M91.75 0h1.99v264.63h-1.99z"></path><path d="M93.08 0h1.99v264.63h-1.99z"></path><path d="M94.41 0h1.99v264.63h-1.99z"></path><path d="M95.74 0h1.99v264.63h-1.99z"></path><path d="M97.07 0h1.99v264.63h-1.99z"></path><path d="M98.4 0h1.99v264.63H98.4z"></path><path d="M99.73 0h1.99v264.63h-1.99z"></path><path d="M101.06 0h1.99v264.63h-1.99z"></path><path d="M102.39 0h1.99v264.63h-1.99z"></path><path d="M103.72 0h1.99v264.63h-1.99z"></path><path d="M105.05 0h1.99v264.63h-1.99z"></path><path d="M106.37 0h1.99v264.63h-1.99z"></path><path d="M107.7 0h1.99v264.63h-1.99z"></path><path d="M109.03 0h1.99v264.63h-1.99z"></path><path d="M110.36 0h1.99v264.63h-1.99z"></path><path d="M111.69 0h1.99v264.63h-1.99z"></path><path d="M113.02 0h1.99v264.63h-1.99z"></path><path d="M114.35 0h1.99v264.63h-1.99z"></path><path d="M115.68 0h1.99v264.63h-1.99z"></path><path d="M117.01 0H119v264.63h-1.99z"></path><path d="M118.34 0h1.99v264.63h-1.99z"></path><path d="M119.67 0h1.99v264.63h-1.99z"></path><path d="M121 0h1.99v264.63H121z"></path><path d="M122.33 0h1.99v264.63h-1.99z"></path><path d="M123.66 0h1.99v264.63h-1.99z"></path><path d="M124.99 0h1.99v264.63h-1.99z"></path><path d="M126.32 0h1.99v264.63h-1.99z"></path><path d="M127.65 0h1.99v264.63h-1.99z"></path><path d="M128.98 0h1.99v264.63h-1.99z"></path><path d="M130.31 0h1.99v264.63h-1.99z"></path><path d="M131.64 0h1.99v264.63h-1.99z"></path><path d="M132.97 0h1.99v264.63h-1.99z"></path><path d="M134.3 0h1.99v264.63h-1.99z"></path><path d="M135.63 0h1.99v264.63h-1.99z"></path><path d="M136.96 0h1.99v264.63h-1.99z"></path><path d="M138.29 0h1.99v264.63h-1.99z"></path><path d="M139.62 0h1.99v264.63h-1.99z"></path><path d="M140.95 0h1.99v264.63h-1.99z"></path><path d="M142.28 0h1.99v264.63h-1.99z"></path><path d="M143.61 0h1.99v264.63h-1.99z"></path><path d="M144.94 0h1.99v264.63h-1.99z"></path><path d="M146.27 0h1.99v264.63h-1.99z"></path><path d="M147.6 0h1.99v264.63h-1.99z"></path><path d="M148.92 0h1.99v264.63h-1.99z"></path><path d="M150.25 0h1.99v264.63h-1.99z"></path><path d="M151.58 0h1.99v264.63h-1.99z"></path><path d="M152.91 0h1.99v264.63h-1.99z"></path><path d="M154.24 0h1.99v264.63h-1.99z"></path><path d="M155.57 0h1.99v264.63h-1.99z"></path><path d="M156.9 0h1.99v264.63h-1.99z"></path><path d="M158.23 0h1.99v264.63h-1.99z"></path><path d="M159.56 0h1.99v264.63h-1.99z"></path><path d="M160.89 0h1.99v264.63h-1.99z"></path><path d="M162.22 0h1.99v264.63h-1.99z"></path><path d="M163.55 0h1.99v264.63h-1.99z"></path><path d="M164.88 0h1.99v264.63h-1.99z"></path><path d="M166.21 0h1.99v264.63h-1.99z"></path><path d="M167.54 0h1.99v264.63h-1.99z"></path><path d="M168.87 0h1.99v264.63h-1.99z"></path><path d="M170.2 0h1.99v264.63h-1.99z"></path><path d="M171.53 0h1.99v264.63h-1.99z"></path><path d="M172.86 0h1.99v264.63h-1.99z"></path><path d="M174.19 0h1.99v264.63h-1.99z"></path><path d="M175.52 0h1.99v264.63h-1.99z"></path><path d="M176.85 0h1.99v264.63h-1.99z"></path><path d="M178.18 0h1.99v264.63h-1.99z"></path><path d="M179.51 0h1.99v264.63h-1.99z"></path><path d="M180.84 0h1.99v264.63h-1.99z"></path><path d="M182.17 0h1.99v264.63h-1.99z"></path><path d="M183.5 0h1.99v264.63h-1.99z"></path><path d="M184.83 0h1.99v264.63h-1.99z"></path><path d="M186.16 0h1.99v264.63h-1.99z"></path><path d="M187.49 0h1.99v264.63h-1.99z"></path><path d="M188.82 0h1.99v264.63h-1.99z"></path><path d="M190.15 0h1.99v264.63h-1.99z"></path><path d="M191.47 0h1.99v264.63h-1.99z"></path><path d="M192.8 0h1.99v264.63h-1.99z"></path><path d="M194.13 0h1.99v264.63h-1.99z"></path><path d="M195.46 0h1.99v264.63h-1.99z"></path><path d="M196.79 0h1.99v264.63h-1.99z"></path><path d="M198.12 0h1.99v264.63h-1.99z"></path><path d="M199.45 0h1.99v264.63h-1.99z"></path><path d="M200.78 0h1.99v264.63h-1.99z"></path><path d="M202.11 0h1.99v264.63h-1.99z"></path><path d="M203.44 0h1.99v264.63h-1.99z"></path><path d="M204.77 0h1.99v264.63h-1.99z"></path><path d="M206.1 0h1.99v264.63h-1.99z"></path><path d="M207.43 0h1.99v264.63h-1.99z"></path><path d="M208.76 0h1.99v264.63h-1.99z"></path><path d="M210.09 0h1.99v264.63h-1.99z"></path><path d="M211.42 0h1.99v264.63h-1.99z"></path><path d="M212.75 0h1.99v264.63h-1.99z"></path><path d="M214.08 0h1.99v264.63h-1.99z"></path><path d="M215.41 0h1.99v264.63h-1.99z"></path><path d="M216.74 0h1.99v264.63h-1.99z"></path><path d="M218.07 0h1.99v264.63h-1.99z"></path><path d="M219.4 0h1.99v264.63h-1.99z"></path><path d="M220.73 0h1.99v264.63h-1.99z"></path><path d="M222.06 0h1.99v264.63h-1.99z"></path><path d="M223.39 0h1.99v264.63h-1.99z"></path><path d="M224.72 0h1.99v264.63h-1.99z"></path><path d="M226.05 0h1.99v264.63h-1.99z"></path><path d="M227.38 0h1.99v264.63h-1.99z"></path><path d="M228.71 0h1.99v264.63h-1.99z"></path><path d="M230.04 0h1.99v264.63h-1.99z"></path><path d="M231.37 0h1.99v264.63h-1.99z"></path><path d="M232.69 0h1.99v264.63h-1.99z"></path><path d="M234.02 0h1.99v264.63h-1.99z"></path><path d="M235.35 0h1.99v264.63h-1.99z"></path><path d="M236.68 0h1.99v264.63h-1.99z"></path><path d="M238.01 0H240v264.63h-1.99z"></path><path d="M239.34 0h1.99v264.63h-1.99z"></path><path d="M240.67 0h1.99v264.63h-1.99z"></path><path d="M242 0h1.99v264.63H242z"></path><path d="M243.33 0h1.99v264.63h-1.99z"></path><path d="M244.66 0h1.99v264.63h-1.99z"></path><path d="M245.99 0h1.99v264.63h-1.99z"></path><path d="M247.32 0h1.99v264.63h-1.99z"></path><path d="M248.65 0h1.99v264.63h-1.99z"></path><path d="M249.98 0h1.99v264.63h-1.99z"></path><path d="M251.31 0h1.99v264.63h-1.99z"></path><path d="M252.64 0h1.99v264.63h-1.99z"></path><path d="M253.97 0h1.99v264.63h-1.99z"></path><path d="M255.3 0h1.99v264.63h-1.99z"></path><path d="M256.63 0h1.99v264.63h-1.99z"></path><path d="M257.96 0h1.99v264.63h-1.99z"></path><path d="M259.29 0h1.99v264.63h-1.99z"></path><path d="M260.62 0h1.99v264.63h-1.99z"></path><path d="M261.95 0h1.99v264.63h-1.99z"></path><path d="M263.28 0h1.99v264.63h-1.99z"></path><path d="M264.61 0h1.99v264.63h-1.99z"></path><path d="M265.94 0h1.99v264.63h-1.99z"></path><path d="M267.27 0h1.99v264.63h-1.99z"></path><path d="M268.6 0h1.99v264.63h-1.99z"></path><path d="M269.93 0h1.99v264.63h-1.99z"></path><path d="M271.26 0h1.99v264.63h-1.99z"></path><path d="M272.59 0h1.99v264.63h-1.99z"></path><path d="M273.92 0h1.99v264.63h-1.99z"></path><path d="M275.24 0h1.99v264.63h-1.99z"></path><path d="M276.57 0h1.99v264.63h-1.99z"></path><path d="M277.9 0h1.99v264.63h-1.99z"></path><path d="M279.23 0h1.99v264.63h-1.99z"></path><path d="M280.56 0h1.99v264.63h-1.99z"></path><path d="M281.89 0h1.99v264.63h-1.99z"></path><path d="M283.22 0h1.99v264.63h-1.99z"></path><path d="M284.55 0h1.99v264.63h-1.99z"></path><path d="M285.88 0h1.99v264.63h-1.99z"></path><path d="M287.21 0h1.99v264.63h-1.99z"></path><path d="M288.54 0h1.99v264.63h-1.99z"></path><path d="M289.87 0h1.99v264.63h-1.99z"></path><path d="M291.2 0h1.99v264.63h-1.99z"></path><path d="M292.53 0h1.99v264.63h-1.99z"></path><path d="M293.86 0h1.99v264.63h-1.99z"></path><path d="M295.19 0h1.99v264.63h-1.99z"></path><path d="M296.52 0h1.99v264.63h-1.99z"></path><path d="M297.85 0h1.99v264.63h-1.99z"></path><path d="M299.18 0h1.99v264.63h-1.99z"></path><path d="M300.51 0h1.99v264.63h-1.99z"></path><path d="M301.84 0h1.99v264.63h-1.99z"></path><path d="M303.17 0h1.99v264.63h-1.99z"></path><path d="M304.5 0h1.99v264.63h-1.99z"></path><path d="M305.83 0h1.99v264.63h-1.99z"></path><path d="M307.16 0h1.99v264.63h-1.99z"></path><path d="M308.49 0h1.99v264.63h-1.99z"></path><path d="M309.82 0h1.99v264.63h-1.99z"></path><path d="M311.15 0h1.99v264.63h-1.99z"></path><path d="M312.48 0h1.99v264.63h-1.99z"></path><path d="M313.81 0h1.99v264.63h-1.99z"></path><path d="M315.14 0h1.99v264.63h-1.99z"></path><path d="M316.47 0h1.99v264.63h-1.99z"></path><path d="M317.79 0h1.99v264.63h-1.99z"></path><path d="M319.12 0h1.99v264.63h-1.99z"></path><path d="M320.45 0h1.99v264.63h-1.99z"></path><path d="M321.78 0h1.99v264.63h-1.99z"></path><path d="M323.11 0h1.99v264.63h-1.99z"></path><path d="M324.44 0h1.99v264.63h-1.99z"></path><path d="M325.77 0h1.99v264.63h-1.99z"></path><path d="M327.1 0h1.99v264.63h-1.99z"></path><path d="M328.43 0h1.99v264.63h-1.99z"></path><path d="M329.76 0h1.99v264.63h-1.99z"></path><path d="M331.09 0h1.99v264.63h-1.99z"></path><path d="M332.42 0h1.99v264.63h-1.99z"></path><path d="M333.75 0h1.99v264.63h-1.99z"></path><path d="M335.08 0h1.99v264.63h-1.99z"></path><path d="M336.41 0h1.99v264.63h-1.99z"></path><path d="M337.74 0h2.66v264.63h-2.66z"></path></g><path d="M180.23 264.63h-47.36l17.8-27.63L203 155.62l23.68 36.82L198 237l-17.8 27.67zm-64.66 0l17.8-27.63 61-94.79-24.17-37.57L85.1 237l-17.8 27.63z" fill-rule="evenodd"></path></g></g></svg></g></mask></svg> <!----></g> <g transform="translate(39,85)"><g data-gra="path-name" fill-rule="" class="tp-name iconsvg-namesvg"><g transform="scale(1)"><g><path d="" transform="translate(0, 0)"></path></g> <!----> <!----> <!----> <!----> <!----> <!----> <!----></g></g> <!----></g></g><defs v-gra="od"></defs></svg>