<?xml version="1.0" encoding="utf-8"?>
<svg viewBox="0 0 750.191 130.703" xmlns="http://www.w3.org/2000/svg" xmlns:xlink="http://www.w3.org/1999/xlink">
  <g id="logo-group" transform="matrix(1, 0, 0, 1, -136.4273223876953, -294.7975158691406)">
    <image id="container" x="272" y="144" width="480" height="200" style="display: none;" transform="translate(0 0)" xlink:href=""/>
    <g id="logo-center" transform="translate(5.684341886080802e-14 0)">
      <image id="icon_container" style="display: none;" x="0" y="0" xlink:href=""/>
      <g id="title" style="font-style:normal;font-weight:800;font-size:72px;line-height:1;font-family:'Montserrat ExtraBold Alt1';font-variant-ligatures:none;text-align:center;text-anchor:middle" transform="translate(0 0)">
        <path id="path20312" style="font-style:normal;font-weight:800;font-size:72px;line-height:1;font-family:'Montserrat ExtraBold Alt1';font-variant-ligatures:none;text-align:center;text-anchor:middle" d="m 339.75575,-2.304 c 4.176,2.232 8.928,3.312 14.256,3.312 4.608,0 8.712,-0.792 12.456,-2.448 3.672,-1.584 6.768,-3.96 9.216,-7.056 l -9.072,-8.208 c -3.312,3.96 -7.272,5.904 -11.88,5.904 -2.736,0 -5.184,-0.576 -7.344,-1.8 -2.16,-1.152 -3.816,-2.88 -4.968,-5.04 -1.152,-2.16 -1.728,-4.68 -1.728,-7.56 0,-2.808 0.576,-5.328 1.728,-7.488 1.152,-2.16 2.808,-3.888 4.968,-5.112 2.16,-1.152 4.608,-1.8 7.344,-1.8 4.608,0 8.568,2.016 11.88,5.904 l 9.072,-8.208 c -2.448,-3.024 -5.544,-5.4 -9.216,-7.056 -3.744,-1.584 -7.848,-2.448 -12.456,-2.448 -5.328,0 -10.08,1.152 -14.256,3.384 -4.176,2.232 -7.488,5.328 -9.864,9.288 -2.448,4.032 -3.6,8.496 -3.6,13.536 0,5.04 1.152,9.576 3.6,13.536 2.376,4.032 5.688,7.128 9.864,9.36 z" stroke-width="0" stroke-linejoin="miter" stroke-miterlimit="2" fill="#FFFFFF" stroke="#FFFFFF" transform="translate(0 308.86) translate(146.51028125000005 1.1624000000000052) scale(1.95) translate(-326.29175 51.408)"/>
        <path id="path20314" style="font-style:normal;font-weight:800;font-size:72px;line-height:1;font-family:'Montserrat ExtraBold Alt1';font-variant-ligatures:none;text-align:center;text-anchor:middle" d="m 411.36425,-50.4 h -14.04 L 375.07625,0 h 14.544 l 3.96,-9.792 4.176,-10.512 6.48,-16.128 6.48,16.128 4.176,10.512 3.96,9.792 h 14.832 z" stroke-width="0" stroke-linejoin="miter" stroke-miterlimit="2" fill="#FFFFFF" stroke="#FFFFFF" transform="translate(0 308.86) translate(241.64005625000013 3.128) scale(1.95) translate(-375.07625 50.4)"/>
        <path id="path20316" style="font-style:normal;font-weight:800;font-size:72px;line-height:1;font-family:'Montserrat ExtraBold Alt1';font-variant-ligatures:none;text-align:center;text-anchor:middle" d="m 444.491,-50.4 h -15.408 l 14.328,33.696 7.704,-17.64 z m 27.648,0 -13.968,32.832 L 450.611,0 h 14.04 l 21.6,-50.4 z" stroke-width="0" stroke-linejoin="miter" stroke-miterlimit="2" fill="#FFFFFF" stroke="#FFFFFF" transform="translate(0 308.86) translate(346.9532187500001 3.128) scale(1.95) translate(-429.083 50.4)"/>
        <path id="path20318" style="font-style:normal;font-weight:800;font-size:72px;line-height:1;font-family:'Montserrat ExtraBold Alt1';font-variant-ligatures:none;text-align:center;text-anchor:middle" d="m 528.875,-50.4 h -39.96 v 11.016 h 39.96 z m 0,19.512 h -39.96 v 10.656 h 39.96 z m -39.96,19.872 V 0 h 39.96 v -11.016 z" stroke-width="0" stroke-linejoin="miter" stroke-miterlimit="2" fill="#FFFFFF" stroke="#FFFFFF" transform="translate(0 308.86) translate(463.62561875000006 3.128) scale(1.95) translate(-488.915 50.4)"/>
        <path id="path20320" style="font-style:normal;font-weight:800;font-size:72px;line-height:1;font-family:'Montserrat ExtraBold Alt1';font-variant-ligatures:none;text-align:center;text-anchor:middle" d="m 572.858,-15.84 c 3.096,-1.512 5.544,-3.6 7.272,-6.336 1.728,-2.736 2.592,-5.904 2.592,-9.576 0,-3.744 -0.936,-7.056 -2.736,-9.864 -1.872,-2.808 -4.464,-4.968 -7.776,-6.48 -3.384,-1.512 -7.344,-2.304 -11.88,-2.304 h -23.04 v 11.232 h 22.176 c 2.88,0 5.112,0.648 6.624,1.944 1.44,1.296 2.232,3.168 2.232,5.472 0,2.376 -0.792,4.176 -2.232,5.472 -1.512,1.296 -3.744,1.872 -6.624,1.872 H 537.29 V 0 h 14.256 v -13.392 h 7.776 L 568.466,0 h 15.264 z" stroke-width="0" stroke-linejoin="miter" stroke-miterlimit="2" fill="#FFFFFF" stroke="#FFFFFF" transform="translate(0 308.86) translate(557.95686875 3.128) scale(1.95) translate(-537.29 50.4)"/>
        <path id="path20322" style="font-style:normal;font-weight:800;font-size:72px;line-height:1;font-family:'Montserrat ExtraBold Alt1';font-variant-ligatures:none;text-align:center;text-anchor:middle" d="m 590.58687,0 h 13.96801 V -8.496 L 590.58687,-26.28 Z m 33.984,-50.4 v 9.144 l 13.968,16.848 V -50.4 Z m 0,26.856 -22.248,-26.856 h -11.736 v 6.696 L 604.55488,-26.856 626.80287,0 h 11.736 v -5.832 l -13.968,-17.784 z" stroke-width="0" stroke-linejoin="miter" stroke-miterlimit="2" fill="#FFFFFF" stroke="#FFFFFF" transform="translate(0 308.86) translate(661.88576525 3.128) scale(1.95) translate(-590.58687 50.4)"/>
        <path id="path20324" style="font-style:normal;font-weight:800;font-size:72px;line-height:1;font-family:'Montserrat ExtraBold Alt1';font-variant-ligatures:none;text-align:center;text-anchor:middle" d="m 678.833,-50.4 h -14.04 L 642.545,0 h 14.544 l 3.96,-9.792 4.176,-10.512 6.48,-16.128 6.48,16.128 4.176,10.512 3.96,9.792 h 14.832 z" stroke-width="0" stroke-linejoin="miter" stroke-miterlimit="2" fill="#FFFFFF" stroke="#FFFFFF" transform="translate(0 308.86) translate(763.2041187499999 3.128) scale(1.95) translate(-642.545 50.4)"/>
      </g>
      <image id="icon" style="display: none;" x="0" y="0" xlink:href=""/>
    </g>
  </g>
</svg>