<svg xmlns:dc="http://purl.org/dc/elements/1.1/" xmlns:cc="http://creativecommons.org/ns#" xmlns:rdf="http://www.w3.org/1999/02/22-rdf-syntax-ns#" xmlns:svg="http://www.w3.org/2000/svg" xmlns="http://www.w3.org/2000/svg" xmlns:xlink="http://www.w3.org/1999/xlink" id="svg20289" viewBox="0 0 1024 768" height="768px" width="1024px" version="1.1">
  <metadata id="metadata20295">
    <rdf:rdf>
      <cc:work rdf:about="">
        <dc:format>image/svg+xml</dc:format>
        <dc:type rdf:resource="http://purl.org/dc/dcmitype/StillImage"></dc:type>
      </cc:work>
    </rdf:rdf>
  </metadata>
  <defs id="defs20293"></defs>
  <linearGradient spreadMethod="pad" y2="30%" x2="-10%" y1="120%" x1="30%" id="3d_gradient2-logo-3e4a95d1-707c-4d7a-be2c-d0c1e2c41b13">
    <stop id="stop20270" stop-opacity="1" stop-color="#ffffff" offset="0%"></stop>
    <stop id="stop20272" stop-opacity="1" stop-color="#000000" offset="100%"></stop>
  </linearGradient>
  <linearGradient gradientTransform="rotate(-30)" spreadMethod="pad" y2="30%" x2="-10%" y1="120%" x1="30%" id="3d_gradient3-logo-3e4a95d1-707c-4d7a-be2c-d0c1e2c41b13">
    <stop id="stop20275" stop-opacity="1" stop-color="#ffffff" offset="0%"></stop>
    <stop id="stop20277" stop-opacity="1" stop-color="#cccccc" offset="50%"></stop>
    <stop id="stop20279" stop-opacity="1" stop-color="#000000" offset="100%"></stop>
  </linearGradient>
  <g id="logo-group">
    <image xlink:href="" id="container" x="272" y="144" width="480" height="480" style="display: none;" transform="translate(0 0)"></image>
    <g id="logo-center" transform="translate(5.684341886080802e-14 0)">
      <image xlink:href="" id="icon_container" style="display: none;" x="0" y="0"></image>
      <g id="slogan" style="font-style:normal;font-weight:800;font-size:32px;line-height:1;font-family:'Montserrat ExtraBold Alt1';font-variant-ligatures:none;text-align:center;text-anchor:middle" transform="translate(0 0)">
        <path id="path20297" style="font-style:normal;font-weight:800;font-size:32px;line-height:1;font-family:'Montserrat ExtraBold Alt1';font-variant-ligatures:none;text-align:center;text-anchor:middle" d="m 448.026,-17.12 c -1.056,-1.664 -2.528,-2.976 -4.416,-3.904 -1.92,-0.896 -4.096,-1.376 -6.528,-1.376 H 426.49 v 5.056 h 10.336 c 1.92,0 3.456,0.544 4.608,1.632 1.152,1.12 1.76,2.624 1.76,4.512 0,1.92 -0.608,3.424 -1.76,4.512 -1.152,1.088 -2.688,1.632 -4.608,1.632 h -4 v -5.952 H 426.49 V 0 h 10.592 c 2.432,0 4.608,-0.448 6.528,-1.376 1.888,-0.896 3.36,-2.208 4.416,-3.904 1.024,-1.664 1.568,-3.648 1.568,-5.92 0,-2.24 -0.544,-4.224 -1.568,-5.92 z" stroke-width="0" stroke-linejoin="miter" stroke-miterlimit="2" fill="#232323" stroke="#232323" transform="translate(-5.684341886080802e-14 384.4576) translate(382.660625 39.248000000000005) scale(1.5) translate(-426.49 22.4)"></path>
        <path id="path20299" style="font-style:normal;font-weight:800;font-size:32px;line-height:1;font-family:'Montserrat ExtraBold Alt1';font-variant-ligatures:none;text-align:center;text-anchor:middle" d="m 470.6875,-22.4 h -17.76 v 4.896 h 17.76 z m 0,8.672 h -17.76 v 4.736 h 17.76 z m -17.76,8.832 V 0 h 17.76 v -4.896 z" stroke-width="0" stroke-linejoin="miter" stroke-miterlimit="2" fill="#232323" stroke="#232323" transform="translate(-5.684341886080802e-14 384.4576) translate(422.316875 39.248000000000005) scale(1.5) translate(-452.9275 22.4)"></path>
        <path id="path20301" style="font-style:normal;font-weight:800;font-size:32px;line-height:1;font-family:'Montserrat ExtraBold Alt1';font-variant-ligatures:none;text-align:center;text-anchor:middle" d="m 487.996,-22.4 h -6.848 l 6.368,14.976 3.424,-7.84 z m 12.288,0 -6.208,14.592 -3.36,7.808 h 6.24 l 9.6,-22.4 z" stroke-width="0" stroke-linejoin="miter" stroke-miterlimit="2" fill="#232323" stroke="#232323" transform="translate(-5.684341886080802e-14 384.4576) translate(464.647625 39.248000000000005) scale(1.5) translate(-481.148 22.4)"></path>
        <path id="path20303" style="font-style:normal;font-weight:800;font-size:32px;line-height:1;font-family:'Montserrat ExtraBold Alt1';font-variant-ligatures:none;text-align:center;text-anchor:middle" d="m 520.398,-22.4 h -6.24 L 504.27,0 h 6.464 l 1.76,-4.352 1.856,-4.672 2.88,-7.168 2.88,7.168 1.856,4.672 1.76,4.352 h 6.592 z" stroke-width="0" stroke-linejoin="miter" stroke-miterlimit="2" fill="#232323" stroke="#232323" transform="translate(-5.684341886080802e-14 384.4576) translate(499.33062499999994 39.248000000000005) scale(1.5) translate(-504.27 22.4)"></path>
        <path id="path20305" style="font-style:normal;font-weight:800;font-size:32px;line-height:1;font-family:'Montserrat ExtraBold Alt1';font-variant-ligatures:none;text-align:center;text-anchor:middle" d="M 532.115,-22.4 V 0 h 17.024 V -5.024 H 538.451 V -22.4 Z" stroke-width="0" stroke-linejoin="miter" stroke-miterlimit="2" fill="#232323" stroke="#232323" transform="translate(-5.684341886080802e-14 384.4576) translate(541.098125 39.248000000000005) scale(1.5) translate(-532.115 22.4)"></path>
        <path id="path20307" style="font-style:normal;font-weight:800;font-size:32px;line-height:1;font-family:'Montserrat ExtraBold Alt1';font-variant-ligatures:none;text-align:center;text-anchor:middle" d="m 556.136,-1.056 c 1.888,1.024 4.032,1.504 6.4,1.504 2.368,0 4.48,-0.48 6.368,-1.504 1.888,-0.992 3.36,-2.368 4.448,-4.16 1.088,-1.76 1.632,-3.744 1.632,-5.984 0,-2.208 -0.544,-4.192 -1.632,-5.984 -1.088,-1.76 -2.56,-3.136 -4.448,-4.16 -1.888,-0.992 -4,-1.504 -6.368,-1.504 -2.368,0 -4.512,0.512 -6.4,1.504 -1.888,1.024 -3.36,2.4 -4.448,4.16 -1.088,1.792 -1.6,3.776 -1.6,5.984 0,2.24 0.512,4.224 1.6,5.984 1.088,1.792 2.56,3.168 4.448,4.16 z m 9.472,-4.544 c -0.928,0.544 -1.952,0.8 -3.072,0.8 -1.152,0 -2.176,-0.256 -3.072,-0.8 -0.928,-0.512 -1.664,-1.28 -2.176,-2.24 -0.544,-0.96 -0.8,-2.08 -0.8,-3.36 0,-1.248 0.256,-2.368 0.8,-3.328 0.512,-0.96 1.248,-1.728 2.176,-2.272 0.896,-0.512 1.92,-0.8 3.072,-0.8 1.12,0 2.144,0.288 3.072,0.8 0.896,0.544 1.632,1.312 2.176,2.272 0.512,0.96 0.8,2.08 0.8,3.328 0,1.28 -0.288,2.4 -0.8,3.36 -0.544,0.96 -1.28,1.728 -2.176,2.24 z" stroke-width="0" stroke-linejoin="miter" stroke-miterlimit="2" fill="#232323" stroke="#232323" transform="translate(-5.684341886080802e-14 384.4576) translate(568.0576249999999 38.576) scale(1.5) translate(-550.088 22.848)"></path>
        <path id="path20309" style="font-style:normal;font-weight:800;font-size:32px;line-height:1;font-family:'Montserrat ExtraBold Alt1';font-variant-ligatures:none;text-align:center;text-anchor:middle" d="m 594.1105,-7.04 c 1.376,-0.672 2.464,-1.6 3.232,-2.816 0.768,-1.216 1.152,-2.624 1.152,-4.256 0,-1.664 -0.416,-3.136 -1.216,-4.384 -0.832,-1.248 -1.984,-2.208 -3.456,-2.88 -1.504,-0.672 -3.264,-1.024 -5.28,-1.024 h -10.24 v 4.992 h 9.856 c 1.28,0 2.272,0.288 2.944,0.864 0.64,0.576 0.992,1.408 0.992,2.432 0,1.056 -0.352,1.856 -0.992,2.432 -0.672,0.576 -1.664,0.832 -2.944,0.832 h -9.856 V 0 h 6.336 v -5.952 h 3.456 L 592.1585,0 h 6.784 z" stroke-width="0" stroke-linejoin="miter" stroke-miterlimit="2" fill="#232323" stroke="#232323" transform="translate(-5.684341886080802e-14 384.4576) translate(610.3793750000001 39.248000000000005) scale(1.5) translate(-578.3025 22.4)"></path>
      </g>
      <g id="title" style="font-style:normal;font-weight:800;font-size:72px;line-height:1;font-family:'Montserrat ExtraBold Alt1';font-variant-ligatures:none;text-align:center;text-anchor:middle" transform="translate(0 0)">
        <path id="path20312" style="font-style:normal;font-weight:800;font-size:72px;line-height:1;font-family:'Montserrat ExtraBold Alt1';font-variant-ligatures:none;text-align:center;text-anchor:middle" d="m 339.75575,-2.304 c 4.176,2.232 8.928,3.312 14.256,3.312 4.608,0 8.712,-0.792 12.456,-2.448 3.672,-1.584 6.768,-3.96 9.216,-7.056 l -9.072,-8.208 c -3.312,3.96 -7.272,5.904 -11.88,5.904 -2.736,0 -5.184,-0.576 -7.344,-1.8 -2.16,-1.152 -3.816,-2.88 -4.968,-5.04 -1.152,-2.16 -1.728,-4.68 -1.728,-7.56 0,-2.808 0.576,-5.328 1.728,-7.488 1.152,-2.16 2.808,-3.888 4.968,-5.112 2.16,-1.152 4.608,-1.8 7.344,-1.8 4.608,0 8.568,2.016 11.88,5.904 l 9.072,-8.208 c -2.448,-3.024 -5.544,-5.4 -9.216,-7.056 -3.744,-1.584 -7.848,-2.448 -12.456,-2.448 -5.328,0 -10.08,1.152 -14.256,3.384 -4.176,2.232 -7.488,5.328 -9.864,9.288 -2.448,4.032 -3.6,8.496 -3.6,13.536 0,5.04 1.152,9.576 3.6,13.536 2.376,4.032 5.688,7.128 9.864,9.36 z" stroke-width="0" stroke-linejoin="miter" stroke-miterlimit="2" fill="#232323" stroke="#232323" transform="translate(0 308.86) translate(146.51028125000005 1.1624000000000052) scale(1.95) translate(-326.29175 51.408)"></path>
        <path id="path20314" style="font-style:normal;font-weight:800;font-size:72px;line-height:1;font-family:'Montserrat ExtraBold Alt1';font-variant-ligatures:none;text-align:center;text-anchor:middle" d="m 411.36425,-50.4 h -14.04 L 375.07625,0 h 14.544 l 3.96,-9.792 4.176,-10.512 6.48,-16.128 6.48,16.128 4.176,10.512 3.96,9.792 h 14.832 z" stroke-width="0" stroke-linejoin="miter" stroke-miterlimit="2" fill="#451d1e" stroke="#451d1e" transform="translate(0 308.86) translate(241.64005625000013 3.128) scale(1.95) translate(-375.07625 50.4)"></path>
        <path id="path20316" style="font-style:normal;font-weight:800;font-size:72px;line-height:1;font-family:'Montserrat ExtraBold Alt1';font-variant-ligatures:none;text-align:center;text-anchor:middle" d="m 444.491,-50.4 h -15.408 l 14.328,33.696 7.704,-17.64 z m 27.648,0 -13.968,32.832 L 450.611,0 h 14.04 l 21.6,-50.4 z" stroke-width="0" stroke-linejoin="miter" stroke-miterlimit="2" fill="#671719" stroke="#671719" transform="translate(0 308.86) translate(346.9532187500001 3.128) scale(1.95) translate(-429.083 50.4)"></path>
        <path id="path20318" style="font-style:normal;font-weight:800;font-size:72px;line-height:1;font-family:'Montserrat ExtraBold Alt1';font-variant-ligatures:none;text-align:center;text-anchor:middle" d="m 528.875,-50.4 h -39.96 v 11.016 h 39.96 z m 0,19.512 h -39.96 v 10.656 h 39.96 z m -39.96,19.872 V 0 h 39.96 v -11.016 z" stroke-width="0" stroke-linejoin="miter" stroke-miterlimit="2" fill="#8a1215" stroke="#8a1215" transform="translate(0 308.86) translate(463.62561875000006 3.128) scale(1.95) translate(-488.915 50.4)"></path>
        <path id="path20320" style="font-style:normal;font-weight:800;font-size:72px;line-height:1;font-family:'Montserrat ExtraBold Alt1';font-variant-ligatures:none;text-align:center;text-anchor:middle" d="m 572.858,-15.84 c 3.096,-1.512 5.544,-3.6 7.272,-6.336 1.728,-2.736 2.592,-5.904 2.592,-9.576 0,-3.744 -0.936,-7.056 -2.736,-9.864 -1.872,-2.808 -4.464,-4.968 -7.776,-6.48 -3.384,-1.512 -7.344,-2.304 -11.88,-2.304 h -23.04 v 11.232 h 22.176 c 2.88,0 5.112,0.648 6.624,1.944 1.44,1.296 2.232,3.168 2.232,5.472 0,2.376 -0.792,4.176 -2.232,5.472 -1.512,1.296 -3.744,1.872 -6.624,1.872 H 537.29 V 0 h 14.256 v -13.392 h 7.776 L 568.466,0 h 15.264 z" stroke-width="0" stroke-linejoin="miter" stroke-miterlimit="2" fill="#ac0c10" stroke="#ac0c10" transform="translate(0 308.86) translate(557.95686875 3.128) scale(1.95) translate(-537.29 50.4)"></path>
        <path id="path20322" style="font-style:normal;font-weight:800;font-size:72px;line-height:1;font-family:'Montserrat ExtraBold Alt1';font-variant-ligatures:none;text-align:center;text-anchor:middle" d="m 590.58687,0 h 13.96801 V -8.496 L 590.58687,-26.28 Z m 33.984,-50.4 v 9.144 l 13.968,16.848 V -50.4 Z m 0,26.856 -22.248,-26.856 h -11.736 v 6.696 L 604.55488,-26.856 626.80287,0 h 11.736 v -5.832 l -13.968,-17.784 z" stroke-width="0" stroke-linejoin="miter" stroke-miterlimit="2" fill="#ce060b" stroke="#ce060b" transform="translate(0 308.86) translate(661.88576525 3.128) scale(1.95) translate(-590.58687 50.4)"></path>
        <path id="path20324" style="font-style:normal;font-weight:800;font-size:72px;line-height:1;font-family:'Montserrat ExtraBold Alt1';font-variant-ligatures:none;text-align:center;text-anchor:middle" d="m 678.833,-50.4 h -14.04 L 642.545,0 h 14.544 l 3.96,-9.792 4.176,-10.512 6.48,-16.128 6.48,16.128 4.176,10.512 3.96,9.792 h 14.832 z" stroke-width="0" stroke-linejoin="miter" stroke-miterlimit="2" fill="#f00006" stroke="#f00006" transform="translate(0 308.86) translate(763.2041187499999 3.128) scale(1.95) translate(-642.545 50.4)"></path>
      </g>
      <image xlink:href="" id="icon" style="display: none;" x="0" y="0"></image>
    </g>
  </g>
</svg>